<svg width="257" height="71" viewBox="0 0 257 71" fill="none" xmlns="http://www.w3.org/2000/svg">
<path fill-rule="evenodd" clip-rule="evenodd" d="M22.0599 0H54.9401C67.1024 0 77 9.85647 77 21.9682V49.0318C77 61.1435 67.1024 71 54.9401 71H22.0599C9.8976 71 0 61.1435 0 49.0318V21.9682C0 9.85647 9.8976 0 22.0599 0Z" fill="#00C1FF"/>
<path fill-rule="evenodd" clip-rule="evenodd" d="M52.491 32.3333L23.8509 61L36.4692 40.75C36.8842 40.0833 36.7182 39.0833 35.9711 38.6667C35.722 38.5 35.473 38.4167 35.1409 38.4167L24.515 38.5C24.0999 38.5 23.6849 38.3333 23.4358 38.0833C22.8547 37.5 22.8547 36.5 23.4358 35.9167L50.9137 9L38.4615 27.5833C37.9634 28.25 38.2125 29.1667 38.8766 29.6667C39.1256 29.8333 39.4577 29.9167 39.7067 29.9167L51.4948 29.75C51.9099 29.75 52.325 29.9167 52.574 30.1667C53.1551 30.8333 53.1551 31.75 52.491 32.3333Z" fill="white"/>
<path d="M105.101 23.9432C106.963 23.9432 108.282 23.4511 109.213 22.7129C110.144 21.9748 110.652 20.8265 110.652 19.4322C110.652 17.9558 110.144 16.8896 109.213 16.0694C108.282 15.3312 106.843 14.9211 104.981 14.9211H96.1787V23.9432H104.981H105.101ZM105.32 10C107.69 10 109.721 10.4101 111.498 11.1483C113.276 11.8864 114.545 13.0347 115.561 14.429C116.492 15.8233 117 17.4637 117 19.4322C117 21.3186 116.492 22.959 115.561 24.4353C114.63 25.8297 113.276 26.9779 111.498 27.7161C109.721 28.4543 107.69 28.8644 105.32 28.8644H96.1787V36H90V10H105.32Z" fill="white"/>
<path d="M174.354 19.462C174.354 17.981 173.855 16.9114 172.942 16.0886C172.028 15.3481 170.615 14.9367 168.788 14.9367H160.148V23.9873H168.705C170.532 23.9873 171.945 23.5759 172.858 22.8354C173.855 22.0127 174.354 20.8608 174.354 19.462ZM174.437 36L169.369 28.7595H169.037H160.065V36H154V10H169.037C171.363 10 173.357 10.4114 175.102 11.1519C176.846 11.8924 178.092 13.0443 179.089 14.443C180.003 15.8418 180.502 17.4873 180.502 19.462C180.502 21.3544 180.003 23.0823 179.089 24.481C178.175 25.8797 176.846 26.9494 175.102 27.6899L181 36H174.437Z" fill="white"/>
<path d="M191.987 14.9367H183.651H182V10H183.651H206.349H208V14.9367H206.349H198.013V36H191.987V14.9367Z" fill="white"/>
<path d="M224.237 25.8797L220 15.924L215.763 25.8797H224.237ZM226.186 30.4051H213.729L211.356 36H205L216.949 10H223.051L235 36H228.475L226.186 30.4051Z" fill="white"/>
<path fill-rule="evenodd" clip-rule="evenodd" d="M130.158 14.9367C128.632 14.9367 127.36 16.3354 127.36 18.0633V27.9367C127.36 29.6646 128.632 31.0633 130.158 31.0633H140.842C142.368 31.0633 143.64 29.6646 143.64 27.9367V18.0633C143.64 16.3354 142.368 14.9367 140.842 14.9367H130.158ZM129.395 10H141.69C146.269 10 150 13.6203 150 18.0633V27.9367C150 32.3797 146.269 36 141.69 36H129.31C124.731 36 121 32.3797 121 27.9367V18.0633C121.085 13.6203 124.816 10 129.395 10Z" fill="white"/>
<path d="M238 9H243.978V30.0789H257V35H238V9Z" fill="white"/>
<path d="M244.627 53.753L241.746 56.6437V62H237V41H241.746V50.7773L251.068 41H256.492L247.763 50.3522L257 62H251.322L244.627 53.753Z" fill="white"/>
<path d="M184 41L177.233 62H172.053L167.542 47.8016L162.863 62H157.767L151 41H155.929L160.608 55.7935L165.453 41H169.881L174.559 55.8785L179.405 41H184Z" fill="white"/>
<path d="M130 58.0891V62H114V41H129.665V44.9109H118.775V49.417H128.408V53.2429H118.775V58.0891H130Z" fill="white"/>
<path d="M109 41V62H105.049L94.708 49.247V62H90V41H93.9513L104.292 53.753V41H109Z" fill="white"/>
<path d="M227.937 48.5363C227.937 47.3508 227.605 46.4194 226.858 45.8266C226.111 45.2339 225.032 44.8952 223.621 44.8952H216.897V52.1774H223.621C225.032 52.1774 226.111 51.8387 226.858 51.246C227.605 50.6532 227.937 49.7218 227.937 48.5363ZM228.02 61.9153L224.036 56.0726H223.787H216.731V61.9153H212V41H223.787C225.613 41 227.19 41.3387 228.518 41.9315C229.846 42.5242 230.925 43.4556 231.589 44.5564C232.336 45.6573 232.668 47.0121 232.668 48.621C232.668 50.1452 232.336 51.5 231.589 52.6855C230.842 53.7863 229.846 54.6331 228.435 55.3105L233 62H228.02V61.9153Z" fill="white"/>
<path d="M138.614 44.9109H132V41H150V44.9109H143.386V62H138.614V44.9109Z" fill="white"/>
<path fill-rule="evenodd" clip-rule="evenodd" d="M193.295 44.8952C192.093 44.8952 191.063 46.0806 191.063 47.4355V55.3952C191.063 56.75 192.093 57.9355 193.295 57.9355H201.791C202.993 57.9355 204.022 56.75 204.022 55.3952V47.4355C204.022 46.0806 202.993 44.8952 201.791 44.8952H193.295ZM192.608 41H202.392C205.996 41 209 43.879 209 47.5202V55.4798C209 59.0363 206.082 62 202.392 62H192.608C189.004 62 186 59.121 186 55.4798V47.5202C186.086 43.879 189.004 41 192.608 41Z" fill="white"/>
</svg>
