<svg width="57" height="51" viewBox="0 0 57 51" fill="none" xmlns="http://www.w3.org/2000/svg">
<path d="M28.9642 32.6952L36.583 40.4767C39.403 43.3584 40.8154 44.8003 42.2935 44.4477C43.7693 44.0973 44.2769 42.2015 45.2898 38.4078L50.9063 17.3643C52.4691 11.5208 53.2493 8.60115 51.515 7.15926C49.7806 5.71738 46.775 6.78982 40.7637 8.93259L12.8784 18.8822C8.0703 20.5986 5.66624 21.4557 5.51349 22.9292C5.4955 23.0794 5.4955 23.2308 5.51349 23.381C5.66154 24.8567 8.0609 25.7201 12.8643 27.4491C15.0381 28.2323 16.1261 28.625 16.9063 29.3744C16.9941 29.4589 17.0787 29.5461 17.1601 29.6362C17.8792 30.4384 18.1848 31.494 18.7981 33.5966L19.9473 37.5381C20.5418 39.5858 20.8403 40.6118 21.6228 40.7512C22.4054 40.8905 23.0845 40.0418 24.4452 38.3424L28.9642 32.6952ZM28.9642 32.6952L28.2193 31.9985C27.3686 31.2005 26.9432 30.8036 26.9432 30.3096C26.9432 29.8156 27.3662 29.4166 28.2193 28.6208L36.6159 20.759" stroke="white" stroke-width="1.5" stroke-linecap="round" stroke-linejoin="round"/>
</svg>
