<svg width="59" height="53" viewBox="0 0 59 53" fill="none" xmlns="http://www.w3.org/2000/svg">
<path d="M52.4344 16.1914C52.1616 15.2824 51.6263 14.4536 50.8822 13.7881C50.138 13.1226 49.2112 12.6439 48.1948 12.3999C45.4181 11.4406 18.5166 10.9705 10.7119 12.4268C9.69532 12.6708 8.76845 13.1497 8.0243 13.8154C7.28015 14.4811 6.7449 15.3101 6.47229 16.2193C5.2183 21.1375 5.1235 31.7702 6.50349 36.7989C6.77628 37.7079 7.31161 38.5367 8.05575 39.2022C8.79989 39.8676 9.72666 40.3464 10.7431 40.5903C16.2426 41.7225 42.3881 41.8813 48.226 40.5903C49.2424 40.3464 50.1692 39.8676 50.9134 39.2022C51.6575 38.5367 52.1928 37.7079 52.4656 36.7989C53.8024 31.4407 53.8972 21.4669 52.4344 16.1914Z" stroke="white" stroke-linecap="round" stroke-linejoin="round"/>
<path d="M37.5 27L24.5 20.5V33.5L37.5 27Z" stroke="white" stroke-linecap="round" stroke-linejoin="round"/>
</svg>
